# Blender 4.5.3 LTS
# www.blender.org
o turtle
v -0.054577 -0.732462 0.054577
v -0.054577 -0.732462 -0.054577
v -0.100391 0.242935 -0.100391
v 0.054577 -0.732462 0.054577
v 0.054577 -0.732462 -0.054577
v -0.100391 0.242935 0.100391
v 0.000000 0.931084 -0.000000
v 0.100391 0.242935 0.100391
v 0.100391 0.242935 -0.100391
v -0.075632 -0.732462 0.000000
v -0.143403 -0.427791 -0.143403
v -0.000000 -0.732462 -0.075632
v 0.075632 -0.732462 0.000000
v 0.000000 -0.732462 0.075632
v -0.061403 0.731240 0.061403
v 0.134604 0.242935 0.000000
v 0.000000 0.242935 0.134604
v -0.143403 -0.427791 0.143403
v -0.134604 0.242935 -0.000000
v 0.000000 0.242935 -0.134604
v 0.143403 -0.427791 -0.143403
v 0.143403 -0.427791 0.143403
v -0.061403 0.731240 -0.061403
v 0.061403 0.731240 -0.061403
v 0.061403 0.731240 0.061403
v -0.195158 -0.427791 -0.000000
v -0.000000 -0.427791 -0.195158
v 0.195158 -0.427791 -0.000000
v 0.000000 -0.427791 0.195158
v 0.000000 -0.777168 0.000000
v -0.099974 0.645685 -0.000000
v 0.000000 0.645685 -0.099974
v 0.099974 0.645685 0.000000
v -0.000000 0.645685 0.099974
vn -0.8799 -0.3480 0.3236
vn -0.9398 0.0832 0.3314
vn -0.9398 0.0832 -0.3314
vn -0.8799 -0.3480 -0.3236
vn -0.3674 0.0925 -0.9255
vn 0.3314 0.0832 -0.9398
vn 0.3236 -0.3480 -0.8799
vn 0.9255 0.0925 -0.3674
vn 0.8799 -0.3480 -0.3236
vn 0.9255 0.0925 0.3674
vn 0.9398 0.0832 -0.3314
vn 0.9398 0.0832 0.3314
vn 0.8799 -0.3480 0.3236
vn 0.3674 0.0925 0.9255
vn 0.3236 -0.3480 0.8799
vn 0.3314 0.0832 0.9398
vn -0.3314 0.0832 0.9398
vn -0.3236 -0.3480 0.8799
vn -0.0000 0.3306 -0.9438
vn 0.3544 -0.8653 -0.3544
vn -0.9255 0.0925 0.3674
vn -0.9438 0.3306 -0.0000
vn -0.9255 0.0925 -0.3674
vn -0.0000 0.3306 0.9438
vn -0.3544 -0.8653 -0.3544
vn -0.3236 -0.3480 -0.8799
vn -0.3314 0.0832 -0.9398
vn -0.3544 -0.8653 0.3544
vn 0.3674 0.0925 -0.9255
vn 0.9438 0.3306 -0.0000
vn 0.3544 -0.8653 0.3544
vn -0.3674 0.0925 0.9255
vt 0.825345 0.314400
vt 0.885125 0.267091
vt 0.999967 0.332949
vt 0.841254 0.453112
vt 0.501354 0.355985
vt 0.382002 0.436217
vt 0.267425 0.228237
vt 0.348291 0.172507
vt 0.140566 0.723569
vt 0.014084 0.868322
vt 0.000000 0.713474
vt 0.133435 0.616011
vt 0.746236 0.312823
vt 0.635031 0.453112
vt 0.307445 0.691451
vt 0.262993 0.797353
vt 0.246017 0.614270
vt 0.187841 0.976395
vt 0.412097 0.807581
vt 0.401952 0.988328
vt 0.696136 0.186108
vt 0.694395 0.258287
vt 0.503358 0.308321
vt 0.503391 0.120162
vt 0.678431 0.617728
vt 0.639634 0.751012
vt 0.526978 0.711166
vt 0.623502 0.561897
vt 0.755916 0.138799
vt 0.662104 0.000000
vt 0.784643 0.597839
vt 0.790434 0.769929
vt 0.573417 0.973861
vt 0.414100 0.916061
vt 0.790434 1.000000
vt 0.835025 0.140376
vt 0.868326 0.000000
vt 0.090378 0.131766
vt 0.121683 0.266494
vt 0.000000 0.271829
vt 0.012919 0.101459
vt 0.886866 0.194912
vt 1.000000 0.144791
vt 0.172805 0.492253
vt 0.000000 0.498487
vt 0.368353 0.546343
vt 0.412097 0.665655
vt 0.796346 0.226606
vt 0.176487 0.074796
vt 0.258685 0.061959
vt 0.211219 0.556763
vt 0.293894 0.500207
vt 0.094717 0.000000
vt 0.747973 0.500207
s 0
f 10/1/1 1/2/1 18/3/1 26/4/1
f 26/5/2 18/6/2 6/7/2 19/8/2
f 3/9/3 11/10/3 26/11/3 19/12/3
f 2/13/4 10/1/4 26/4/4 11/14/4
f 32/15/5 20/16/5 3/9/5 23/17/5
f 27/18/6 20/16/6 9/19/6 21/20/6
f 5/21/7 12/22/7 27/23/7 21/24/7
f 33/25/8 16/26/8 9/27/8 24/28/8
f 13/29/9 5/21/9 21/24/9 28/30/9
f 33/25/10 25/31/10 8/32/10 16/26/10
f 9/27/11 16/26/11 28/33/11 21/34/11
f 28/33/12 16/26/12 8/32/12 22/35/12
f 4/36/13 13/29/13 28/30/13 22/37/13
f 34/38/14 17/39/14 8/40/14 25/41/14
f 14/42/15 4/36/15 22/37/15 29/43/15
f 8/40/16 17/39/16 29/44/16 22/45/16
f 29/44/17 17/39/17 6/7/17 18/6/17
f 1/2/18 14/42/18 29/43/18 18/3/18
f 32/15/19 23/17/19 7/46/19 24/47/19
f 30/48/20 12/22/20 5/21/20 13/29/20
f 19/8/21 6/7/21 15/49/21 31/50/21
f 31/51/22 15/52/22 7/46/22 23/17/22
f 3/9/23 19/12/23 31/51/23 23/17/23
f 7/53/24 15/49/24 34/38/24 25/41/24
f 10/1/25 2/13/25 12/22/25 30/48/25
f 12/22/26 2/13/26 11/14/26 27/23/26
f 27/18/27 11/10/27 3/9/27 20/16/27
f 1/2/28 10/1/28 30/48/28 14/42/28
f 9/19/29 20/16/29 32/15/29 24/47/29
f 33/25/30 24/28/30 7/54/30 25/31/30
f 30/48/31 13/29/31 4/36/31 14/42/31
f 15/49/32 6/7/32 17/39/32 34/38/32
