# Blender 4.5.3 LTS
# www.blender.org
o missile
v -0.067298 -1.000000 -0.188603
v 0.000000 -1.000000 0.000000
v -0.067298 -0.600000 -0.188603
v 0.000000 -1.000000 -0.100000
v 0.000000 1.000000 -0.100000
v 0.085775 -1.000000 0.180949
v 0.070711 -1.000000 -0.070711
v 0.085775 -0.600000 0.180949
v -0.085775 -1.000000 -0.180949
v 0.070711 1.000000 -0.070711
v -0.085775 -0.600000 -0.180949
v 0.100000 -1.000000 0.000000
v 0.100000 1.000000 0.000000
v 0.067298 -1.000000 0.188603
v 0.070711 -1.000000 0.070711
v 0.067298 -0.600000 0.188603
v -0.188603 -1.000000 0.067298
v 0.070711 1.000000 0.070711
v -0.188603 -0.600000 0.067298
v 0.000000 -1.000000 0.100000
v 0.180949 -1.000000 -0.085775
v 0.000000 1.000000 0.100000
v 0.180949 -0.600000 -0.085775
v -0.070711 -1.000000 0.070711
v -0.180949 -1.000000 0.085775
v -0.070711 1.000000 0.070711
v -0.180949 -0.600000 0.085775
v -0.100000 -1.000000 0.000000
v 0.188603 -1.000000 -0.067298
v -0.100000 1.000000 0.000000
v 0.188603 -0.600000 -0.067298
v -0.070711 -1.000000 -0.070711
v -0.070711 1.000000 -0.070711
v 0.089182 -1.000000 -0.026117
v 0.089182 -0.600000 -0.026117
v 0.081529 -0.600000 -0.044594
v 0.081529 -1.000000 -0.044594
v 0.026117 -1.000000 0.089182
v 0.026117 -0.600000 0.089182
v 0.044594 -0.600000 0.081528
v 0.044594 -1.000000 0.081528
v -0.081529 -0.600000 0.044594
v -0.089182 -0.600000 0.026117
v -0.089182 -1.000000 0.026117
v -0.081529 -1.000000 0.044594
v -0.044594 -0.600000 -0.081528
v -0.026117 -0.600000 -0.089182
v -0.026117 -1.000000 -0.089182
v -0.044594 -1.000000 -0.081528
v 0.000000 -1.000000 -0.026131
v 0.007654 -1.000000 -0.007654
v 0.010824 -1.000000 0.000000
v 0.018478 -1.000000 0.018478
v 0.000000 -1.000000 0.026131
v -0.007654 -1.000000 0.007654
v -0.010824 -1.000000 0.000000
v -0.018478 -1.000000 -0.018478
v -0.026131 -1.000000 0.000000
v -0.007654 -1.000000 -0.007654
v 0.000000 -1.000000 -0.010824
v 0.018478 -1.000000 -0.018478
v 0.026131 -1.000000 0.000000
v 0.007654 -1.000000 0.007654
v 0.000000 -1.000000 0.010824
v -0.018478 -1.000000 0.018478
v -0.005412 -1.000000 0.013066
v -0.013066 -1.000000 -0.005412
v 0.013066 -1.000000 0.005412
v 0.005412 -1.000000 -0.013066
v 0.000000 1.000000 -0.100000
v 0.070711 1.000000 -0.070711
v 0.100000 1.000000 0.000000
v 0.070711 1.000000 0.070711
v 0.000000 1.000000 0.100000
v -0.070711 1.000000 0.070711
v -0.100000 1.000000 0.000000
v -0.070711 1.000000 -0.070711
v 0.000000 1.200000 0.000000
vn -0.0000 -1.0000 -0.0000
vn -0.0000 -0.0000 -1.0000
vn 0.7071 -0.0000 -0.7071
vn 0.9239 -0.0000 -0.3827
vn 1.0000 -0.0000 -0.0000
vn 0.7071 -0.0000 0.7071
vn 0.3827 -0.0000 0.9239
vn -0.0000 -0.0000 1.0000
vn -0.7071 -0.0000 0.7071
vn -0.9239 -0.0000 0.3827
vn -1.0000 -0.0000 -0.0000
vn -0.7071 -0.0000 -0.7071
vn -0.3827 -0.0000 -0.9239
vn -0.0000 1.0000 -0.0000
vn -0.0000 0.4472 -0.8944
vn 0.6325 0.4472 -0.6325
vn 0.8944 0.4472 -0.0000
vn 0.6325 0.4472 0.6325
vn -0.0000 0.4472 0.8944
vn -0.6325 0.4472 0.6325
vn -0.8944 0.4472 -0.0000
vn -0.6325 0.4472 -0.6325
vt 0.651539 0.076882
vt 0.651539 0.072745
vt 0.659969 0.074813
vt 0.648047 0.074813
vt 0.639618 0.069820
vt 0.639618 0.079807
vt 0.582089 0.093922
vt 0.582089 0.055705
vt 0.000666 0.000666
vt 0.065183 0.999334
vt 0.000666 0.999334
vt 0.598939 0.045724
vt 0.627710 0.028681
vt 0.651539 0.062758
vt 0.610860 0.038662
vt 0.656477 0.069820
vt 0.267731 0.000666
vt 0.308419 0.799600
vt 0.291560 0.799600
vt 0.692227 0.028681
vt 0.668398 0.062758
vt 0.663460 0.069820
vt 0.659969 0.067752
vt 0.067432 0.000666
vt 0.131950 0.999334
vt 0.067432 0.999334
vt 0.680319 0.069820
vt 0.720998 0.045724
vt 0.737848 0.055705
vt 0.709077 0.038662
vt 0.668398 0.072745
vt 0.401263 0.000666
vt 0.441951 0.799600
vt 0.425092 0.799600
vt 0.737848 0.093922
vt 0.668398 0.076882
vt 0.671890 0.074813
vt 0.680319 0.079807
vt 0.134198 0.000666
vt 0.198716 0.999334
vt 0.134198 0.999334
vt 0.720998 0.103903
vt 0.692227 0.120946
vt 0.668398 0.086868
vt 0.709077 0.110965
vt 0.663460 0.079807
vt 0.334497 0.000666
vt 0.375185 0.799600
vt 0.358326 0.799600
vt 0.627710 0.120946
vt 0.651539 0.086868
vt 0.656477 0.079807
vt 0.659969 0.081875
vt 0.200964 0.000666
vt 0.265482 0.999334
vt 0.200964 0.999334
vt 0.610860 0.110965
vt 0.598939 0.103903
vt 0.468029 0.000666
vt 0.508717 0.799600
vt 0.491858 0.799600
vt 0.878103 0.602531
vt 0.787391 0.402797
vt 0.878103 0.402797
vt 0.534795 0.752157
vt 0.625508 0.552424
vt 0.625508 0.752157
vt 0.880352 0.784982
vt 0.897211 0.984716
vt 0.880352 0.984716
vt 0.534795 0.753489
vt 0.625508 0.953223
vt 0.534795 0.953223
vt 0.878103 0.803596
vt 0.787391 0.603863
vt 0.878103 0.603863
vt 0.947118 0.000666
vt 0.963977 0.200400
vt 0.947118 0.200400
vt 0.773221 0.000666
vt 0.546716 0.148961
vt 0.963977 0.603863
vt 0.947118 0.657597
vt 0.947118 0.603863
vt 0.947118 0.712663
vt 0.963977 0.658929
vt 0.963977 0.712663
vt 0.534795 0.150293
vt 0.625508 0.350026
vt 0.534795 0.350026
vt 0.878103 0.200400
vt 0.787391 0.000666
vt 0.878103 0.000666
vt 0.947118 0.201732
vt 0.963977 0.401465
vt 0.947118 0.401465
vt 0.878103 0.401465
vt 0.787391 0.201732
vt 0.878103 0.201732
vt 0.534795 0.551092
vt 0.625508 0.351358
vt 0.625508 0.551092
vt 0.947118 0.402797
vt 0.963977 0.602531
vt 0.947118 0.602531
vt 0.773221 0.148961
vt 0.546716 0.000666
vt 0.947118 0.713995
vt 0.963977 0.767730
vt 0.947118 0.767730
vt 0.963977 0.822796
vt 0.947118 0.769062
vt 0.963977 0.769062
vt 0.787391 0.910042
vt 0.850956 0.804928
vt 0.850956 0.916583
vt 0.880352 0.449633
vt 0.912611 0.339626
vt 0.944870 0.449633
vt 0.880352 0.105780
vt 0.943918 0.000666
vt 0.943918 0.112320
vt 0.880352 0.560972
vt 0.912611 0.450965
vt 0.944870 0.560972
vt 0.880352 0.218766
vt 0.943918 0.113652
vt 0.943918 0.225307
vt 0.880352 0.672311
vt 0.912611 0.562304
vt 0.944869 0.672311
vt 0.880352 0.331753
vt 0.943918 0.226639
vt 0.943918 0.338293
vt 0.880352 0.783650
vt 0.912611 0.673643
vt 0.944869 0.783650
vt 0.065183 0.000666
vt 0.291560 0.999334
vt 0.267731 0.999334
vt 0.332248 0.000666
vt 0.332248 0.999334
vt 0.308419 0.999334
vt 0.131950 0.000666
vt 0.425092 0.999334
vt 0.401263 0.999334
vt 0.465780 0.000666
vt 0.465780 0.999334
vt 0.441951 0.999334
vt 0.198716 0.000666
vt 0.358326 0.999334
vt 0.334497 0.999334
vt 0.399014 0.000666
vt 0.399014 0.999334
vt 0.375185 0.999334
vt 0.265482 0.000666
vt 0.491858 0.999334
vt 0.468029 0.999334
vt 0.532546 0.000666
vt 0.532546 0.999334
vt 0.508717 0.999334
vt 0.787391 0.602531
vt 0.534795 0.552424
vt 0.897211 0.784982
vt 0.625508 0.753489
vt 0.787391 0.803596
vt 0.963977 0.000666
vt 0.785142 0.007728
vt 0.534795 0.141899
vt 0.963977 0.657597
vt 0.947118 0.658929
vt 0.625508 0.150293
vt 0.787391 0.200400
vt 0.963977 0.201732
vt 0.787391 0.401465
vt 0.534795 0.351358
vt 0.963977 0.402797
vt 0.785142 0.141899
vt 0.534795 0.007728
vt 0.963977 0.713995
vt 0.947118 0.822796
s 1
f 60/1/1 51/2/1 2/3/1
f 51/2/1 69/4/1 61/5/1
f 50/6/1 4/7/1 7/8/1
f 50/6/1 69/4/1 60/1/1
f 5/9/2 7/10/3 4/11/2
f 37/12/1 61/5/1 7/8/1
f 12/13/1 62/14/1 34/15/1
f 62/14/1 52/16/1 61/5/1
f 2/3/1 51/2/1 52/16/1
f 10/17/3 35/18/4 36/19/4
f 12/13/1 15/20/1 53/21/1
f 52/16/1 63/22/1 2/3/1
f 62/14/1 68/23/1 52/16/1
f 63/22/1 68/23/1 53/21/1
f 13/24/5 15/25/6 12/26/5
f 54/27/1 38/28/1 20/29/1
f 41/30/1 53/21/1 15/20/1
f 54/27/1 64/31/1 63/22/1
f 2/3/1 63/22/1 64/31/1
f 18/32/6 39/33/7 40/34/7
f 54/27/1 20/29/1 24/35/1
f 55/36/1 64/31/1 66/37/1
f 66/37/1 65/38/1 55/36/1
f 54/27/1 66/37/1 64/31/1
f 22/39/8 24/40/9 20/41/8
f 45/42/1 65/38/1 24/35/1
f 28/43/1 58/44/1 44/45/1
f 56/46/1 2/3/1 55/36/1
f 58/44/1 56/46/1 55/36/1
f 26/47/9 43/48/10 42/49/10
f 28/43/1 32/50/1 57/51/1
f 59/52/1 56/46/1 67/53/1
f 58/44/1 67/53/1 56/46/1
f 59/52/1 67/53/1 57/51/1
f 30/54/11 32/55/12 28/56/11
f 49/57/1 57/51/1 32/50/1
f 50/6/1 48/58/1 4/7/1
f 2/3/1 59/52/1 60/1/1
f 50/6/1 60/1/1 59/52/1
f 33/59/12 47/60/13 46/61/13
f 6/62/4 40/63/4 8/64/4
f 1/65/4 47/66/4 48/67/4
f 8/68/7 14/69/7 6/70/7
f 16/71/10 38/72/10 14/73/10
f 9/74/10 46/75/10 11/76/10
f 11/77/13 1/78/13 9/79/13
f 6/80/1 38/28/1 41/30/1
f 9/81/1 48/58/1 49/57/1
f 56/46/1 2/3/1 55/36/1
f 59/52/1 67/53/1 57/51/1
f 54/27/1 66/37/1 64/31/1
f 2/3/1 63/22/1 64/31/1
f 2/3/1 59/52/1 60/1/1
f 63/22/1 68/23/1 53/21/1
f 50/6/1 69/4/1 60/1/1
f 2/3/1 51/2/1 52/16/1
f 8/82/14 39/83/14 16/84/14
f 11/85/14 47/86/14 3/87/14
f 19/88/13 44/89/13 17/90/13
f 21/91/13 36/92/13 23/93/13
f 23/94/4 29/95/4 21/96/4
f 25/97/7 42/98/7 27/99/7
f 29/100/7 35/101/7 34/102/7
f 27/103/10 17/104/10 25/105/10
f 45/42/1 17/106/1 44/45/1
f 37/12/1 29/107/1 34/15/1
f 66/37/1 65/38/1 55/36/1
f 62/14/1 68/23/1 52/16/1
f 2/3/1 51/2/1 52/16/1
f 2/3/1 63/22/1 64/31/1
f 51/2/1 69/4/1 61/5/1
f 56/46/1 2/3/1 55/36/1
f 2/3/1 59/52/1 60/1/1
f 58/44/1 67/53/1 56/46/1
f 19/108/14 42/109/14 43/110/14
f 31/111/14 36/112/14 35/113/14
f 70/114/15 78/115/14 71/116/16
f 71/117/16 78/118/14 72/119/17
f 72/120/17 78/121/14 73/122/18
f 73/123/18 78/124/14 74/125/19
f 74/126/19 78/127/14 75/128/20
f 75/129/20 78/130/14 76/131/21
f 76/132/21 78/133/14 77/134/22
f 77/135/22 78/136/14 70/137/15
f 60/1/1 69/4/1 51/2/1
f 7/8/1 61/5/1 50/6/1
f 61/5/1 69/4/1 50/6/1
f 5/9/2 10/138/3 7/10/3
f 52/16/1 51/2/1 61/5/1
f 61/5/1 37/12/1 34/15/1
f 34/15/1 62/14/1 61/5/1
f 37/139/4 7/140/3 36/19/4
f 7/140/3 10/17/3 36/19/4
f 10/17/3 13/141/5 35/18/4
f 13/141/5 12/142/5 35/18/4
f 12/142/5 34/143/4 35/18/4
f 68/23/1 62/14/1 53/21/1
f 62/14/1 12/13/1 53/21/1
f 52/16/1 68/23/1 63/22/1
f 13/24/5 18/144/6 15/25/6
f 63/22/1 53/21/1 54/27/1
f 53/21/1 41/30/1 54/27/1
f 41/30/1 38/28/1 54/27/1
f 41/145/7 15/146/6 40/34/7
f 15/146/6 18/32/6 40/34/7
f 18/32/6 22/147/8 39/33/7
f 22/147/8 20/148/8 39/33/7
f 20/148/8 38/149/7 39/33/7
f 24/35/1 65/38/1 54/27/1
f 65/38/1 66/37/1 54/27/1
f 55/36/1 2/3/1 64/31/1
f 22/39/8 26/150/9 24/40/9
f 55/36/1 65/38/1 58/44/1
f 65/38/1 45/42/1 58/44/1
f 45/42/1 44/45/1 58/44/1
f 45/151/10 24/152/9 42/49/10
f 24/152/9 26/47/9 42/49/10
f 26/47/9 30/153/11 43/48/10
f 30/153/11 28/154/11 43/48/10
f 28/154/11 44/155/10 43/48/10
f 67/53/1 58/44/1 57/51/1
f 58/44/1 28/43/1 57/51/1
f 59/52/1 2/3/1 56/46/1
f 30/54/11 33/156/12 32/55/12
f 59/52/1 57/51/1 50/6/1
f 57/51/1 49/57/1 50/6/1
f 49/57/1 48/58/1 50/6/1
f 49/157/13 32/158/12 46/61/13
f 32/158/12 33/59/12 46/61/13
f 33/59/12 5/159/2 47/60/13
f 5/159/2 4/160/2 47/60/13
f 4/160/2 48/161/13 47/60/13
f 6/62/4 41/162/4 40/63/4
f 1/65/4 3/163/4 47/66/4
f 8/68/7 16/164/7 14/69/7
f 16/71/10 39/165/10 38/72/10
f 9/74/10 49/166/10 46/75/10
f 11/77/13 3/167/13 1/78/13
f 6/80/1 14/168/1 38/28/1
f 9/81/1 1/169/1 48/58/1
f 8/82/14 40/170/14 39/83/14
f 11/85/14 46/171/14 47/86/14
f 19/88/13 43/172/13 44/89/13
f 21/91/13 37/173/13 36/92/13
f 23/94/4 31/174/4 29/95/4
f 25/97/7 45/175/7 42/98/7
f 29/100/7 31/176/7 35/101/7
f 27/103/10 19/177/10 17/104/10
f 45/42/1 25/178/1 17/106/1
f 37/12/1 21/179/1 29/107/1
f 19/108/14 27/180/14 42/109/14
f 31/111/14 23/181/14 36/112/14
